<svg id="visual" viewBox="0 0 960 540" width="100%" height="100%" preserveAspectRatio="none" xmlns="http://www.w3.org/2000/svg" xmlns:xlink="http://www.w3.org/1999/xlink" version="1.1"><rect x="0" y="0" width="960" height="540" fill="#faefe3"></rect><defs><linearGradient id="grad1_0" x1="43.8%" y1="100%" x2="100%" y2="0%"><stop offset="14.444444444444446%" stop-color="#e0c19f" stop-opacity="1"></stop><stop offset="85.55555555555554%" stop-color="#e0c19f" stop-opacity="1"></stop></linearGradient></defs><defs><linearGradient id="grad1_1" x1="43.8%" y1="100%" x2="100%" y2="0%"><stop offset="14.444444444444446%" stop-color="#e0c19f" stop-opacity="1"></stop><stop offset="85.55555555555554%" stop-color="#faefe3" stop-opacity="1"></stop></linearGradient></defs><defs><linearGradient id="grad2_0" x1="0%" y1="100%" x2="56.3%" y2="0%"><stop offset="14.444444444444446%" stop-color="#e0c19f" stop-opacity="1"></stop><stop offset="85.55555555555554%" stop-color="#e0c19f" stop-opacity="1"></stop></linearGradient></defs><defs><linearGradient id="grad2_1" x1="0%" y1="100%" x2="56.3%" y2="0%"><stop offset="14.444444444444446%" stop-color="#faefe3" stop-opacity="1"></stop><stop offset="85.55555555555554%" stop-color="#e0c19f" stop-opacity="1"></stop></linearGradient></defs><g transform="translate(960, 540)"><path d="M-243 0C-241.6 -33.5 -240.3 -67 -224.5 -93C-208.7 -119 -178.5 -137.4 -152.7 -152.7C-126.9 -168.1 -105.5 -180.4 -80.7 -194.9C-56 -209.5 -28 -226.2 0 -243L0 0Z" fill="#edd8c0"></path><path d="M-121.5 0C-120.8 -16.8 -120.1 -33.5 -112.3 -46.5C-104.4 -59.5 -89.3 -68.7 -76.4 -76.4C-63.5 -84 -52.7 -90.2 -40.4 -97.5C-28 -104.7 -14 -113.1 0 -121.5L0 0Z" fill="#e0c19f"></path></g><g transform="translate(0, 0)"><path d="M243 0C220.4 24.7 197.7 49.5 186.6 77.3C175.5 105.1 175.9 136 162.6 162.6C149.4 189.3 122.4 211.8 93 224.5C63.6 237.2 31.8 240.1 0 243L0 0Z" fill="#edd8c0"></path><path d="M121.5 0C110.2 12.4 98.9 24.7 93.3 38.7C87.8 52.6 88 68 81.3 81.3C74.7 94.7 61.2 105.9 46.5 112.3C31.8 118.6 15.9 120.1 0 121.5L0 0Z" fill="#e0c19f"></path></g></svg>